<?xml version="1.0" standalone="no"?>
<!DOCTYPE svg PUBLIC "-//W3C//DTD SVG 20010904//EN"
 "http://www.w3.org/TR/2001/REC-SVG-20010904/DTD/svg10.dtd">
<svg version="1.0" xmlns="http://www.w3.org/2000/svg"
 width="1500.000000pt" height="1500.000000pt" viewBox="0 0 1500.000000 1500.000000"
 preserveAspectRatio="xMidYMid meet">
<metadata>
Created by potrace 1.11, written by Peter Selinger 2001-2013
</metadata>
<g transform="translate(0.000000,1500.000000) scale(0.100000,-0.100000)"
fill="#000000" stroke="none">
<path d="M7426 14316 c-102 -53 -301 -169 -308 -180 -4 -6 -8 -8 -8 -4 0 7
-104 -52 -127 -72 -7 -6 -13 -8 -13 -5 0 4 -13 -3 -29 -14 -16 -12 -34 -21
-40 -21 -6 0 -11 -4 -11 -8 0 -4 -16 -14 -35 -21 -22 -8 -33 -17 -29 -24 4 -7
4 -9 -1 -5 -10 9 -105 -41 -105 -55 0 -6 -3 -7 -6 -4 -7 7 -97 -42 -102 -55
-2 -4 -9 -8 -15 -8 -6 0 -60 -29 -121 -64 -125 -72 -153 -88 -318 -182 -65
-36 -118 -69 -118 -73 0 -4 -10 -8 -22 -8 -13 -1 -27 -8 -33 -16 -5 -7 -25
-19 -42 -26 -18 -7 -33 -17 -33 -22 0 -5 -9 -9 -19 -9 -11 0 -21 -3 -23 -8 -1
-4 -66 -43 -143 -87 -77 -43 -143 -84 -147 -90 -4 -5 -8 -7 -8 -3 0 3 -39 -16
-87 -44 -90 -52 -810 -465 -873 -500 -19 -11 -80 -45 -135 -76 -55 -31 -101
-60 -103 -64 -2 -4 -8 -8 -13 -8 -5 0 -193 -105 -417 -233 -224 -129 -434
-249 -467 -267 -33 -18 -77 -44 -97 -57 -21 -12 -42 -23 -48 -23 -5 0 -10 -4
-10 -9 0 -5 -10 -11 -23 -15 -12 -3 -31 -13 -43 -23 -11 -10 -24 -19 -29 -20
-19 -3 -95 -50 -90 -55 3 -2 -1 -5 -8 -5 -19 0 -138 -69 -132 -76 3 -4 2 -5
-2 -2 -7 5 -114 -53 -124 -68 -3 -5 -8 -7 -10 -6 -6 5 -193 -102 -201 -115 -4
-6 -8 -7 -8 -3 0 4 -25 -8 -55 -28 -31 -19 -58 -35 -60 -35 -9 0 -220 -124
-226 -133 -3 -5 -9 -8 -13 -8 -3 1 -40 -18 -81 -41 -42 -24 -88 -50 -103 -58
-15 -8 -60 -34 -100 -58 -41 -23 -78 -42 -83 -42 -5 0 -9 -4 -9 -10 0 -5 -4
-10 -9 -10 -22 0 -315 -176 -329 -199 -16 -23 -17 -279 -18 -3451 0 -1884 2
-3429 5 -3435 3 -5 6 -16 8 -24 1 -8 8 -20 15 -27 12 -12 840 -490 933 -538
22 -12 42 -24 45 -27 3 -3 32 -20 65 -38 33 -18 90 -51 127 -72 36 -21 71 -39
77 -39 6 0 11 -3 11 -7 0 -5 31 -24 68 -43 37 -19 69 -37 72 -40 7 -7 111 -70
115 -70 3 0 33 -17 67 -38 35 -21 88 -52 118 -69 84 -46 127 -71 230 -131 52
-31 98 -56 102 -55 3 1 12 -4 18 -12 7 -8 16 -15 20 -15 6 0 193 -105 250
-141 8 -5 31 -17 50 -27 19 -9 37 -20 38 -24 2 -5 8 -8 13 -8 5 0 44 -21 87
-46 85 -50 103 -60 147 -83 16 -9 35 -22 43 -28 7 -7 18 -13 23 -13 5 0 11 0
14 0 3 0 14 -9 25 -20 11 -11 31 -22 45 -26 14 -3 25 -10 25 -15 0 -5 4 -9 9
-9 5 0 44 -20 85 -45 42 -25 79 -45 81 -45 2 0 25 -13 51 -30 26 -16 51 -27
55 -24 5 3 9 1 9 -5 0 -5 12 -16 28 -24 15 -7 66 -36 114 -64 48 -28 89 -48
92 -45 4 3 6 0 6 -6 0 -7 7 -12 15 -12 8 0 15 -4 15 -9 0 -5 10 -13 23 -17 12
-3 34 -15 50 -26 15 -11 27 -16 27 -11 0 4 4 3 8 -3 5 -8 291 -173 575 -333
21 -12 49 -29 63 -37 13 -9 24 -12 24 -8 0 5 4 4 8 -2 7 -10 86 -59 137 -84
17 -8 32 -17 35 -21 15 -16 159 -87 165 -81 5 4 6 2 2 -3 -3 -6 25 -26 61 -45
37 -19 69 -37 72 -40 5 -5 219 -128 305 -175 22 -13 85 -48 140 -80 55 -32
105 -58 112 -58 7 0 11 -2 8 -5 -5 -6 627 -368 638 -364 4 1 7 -2 7 -6 0 -14
42 -29 73 -26 29 3 156 69 169 88 4 6 8 7 8 3 0 -5 13 1 29 12 16 12 34 21 40
21 6 0 11 4 11 8 0 4 12 13 28 19 28 12 103 54 112 63 3 3 22 14 43 25 20 11
37 22 37 26 0 3 6 6 13 6 6 0 46 20 87 44 41 25 82 48 90 52 8 4 31 17 50 28
19 12 161 93 315 181 154 88 282 163 285 167 3 3 10 7 15 8 6 1 92 49 193 107
101 58 187 106 192 106 5 0 10 3 12 8 2 4 24 18 50 32 27 13 48 28 48 33 0 4
4 6 9 3 5 -3 14 1 21 9 7 8 18 15 25 15 6 0 22 9 35 20 13 11 27 20 32 20 11
0 221 122 229 133 3 5 8 7 10 6 4 -4 170 90 179 100 3 3 10 7 16 8 5 1 45 22
87 47 43 25 82 46 87 46 6 0 10 5 10 10 0 6 7 10 15 10 8 0 23 8 33 18 10 9
23 18 29 19 6 1 39 19 74 40 35 21 66 38 69 38 18 4 59 29 55 35 -2 4 1 7 8 7
16 1 231 123 235 134 2 5 7 7 12 4 5 -3 14 0 22 7 7 7 43 29 80 48 36 19 64
39 61 44 -4 5 -2 6 4 3 5 -3 25 3 44 15 19 12 59 35 89 51 30 16 62 36 71 43
8 8 19 14 23 14 4 0 65 33 134 73 70 41 154 89 187 107 92 51 97 54 117 70 10
8 22 15 26 15 7 1 28 12 77 42 11 6 35 19 53 28 17 10 32 21 32 24 0 4 6 8 13
8 6 0 83 41 170 92 87 50 162 91 167 91 6 0 10 4 10 9 0 5 17 16 38 25 37 17
153 84 162 95 3 3 11 7 18 9 7 1 32 14 55 29 23 15 45 26 50 25 4 -1 7 2 7 8
0 5 5 10 11 10 5 0 53 25 105 55 53 30 97 55 100 55 2 0 13 8 24 17 11 10 24
18 28 18 4 0 25 11 47 25 22 14 45 27 50 29 6 2 47 26 93 52 45 27 87 49 91
49 5 0 11 3 13 8 2 4 29 21 61 37 32 17 66 37 75 45 10 8 23 16 29 17 11 2
150 81 183 103 8 6 23 13 33 16 9 4 17 11 17 17 0 6 3 7 6 4 4 -4 19 2 34 13
16 11 33 20 39 20 6 0 11 5 11 10 0 6 6 10 13 10 8 0 24 12 38 26 l24 26 0
3450 0 3450 -37 32 c-20 17 -53 40 -75 51 -21 11 -70 39 -110 62 -39 24 -74
43 -76 43 -3 0 -35 18 -71 40 -36 22 -68 40 -70 40 -3 0 -26 13 -52 30 -26 16
-51 27 -57 23 -6 -3 -7 -1 -3 5 3 6 -3 13 -14 17 -11 4 -51 25 -88 47 -37 23
-73 41 -79 41 -7 0 -13 4 -13 9 0 5 -8 12 -17 15 -10 4 -34 17 -54 29 -20 13
-40 20 -43 17 -3 -4 -6 -2 -6 3 0 5 -21 21 -47 34 -27 14 -49 28 -51 33 -2 4
-8 7 -12 7 -5 0 -64 32 -132 72 -68 39 -139 80 -158 90 -19 11 -44 25 -55 31
-48 30 -91 51 -97 49 -5 -1 -8 1 -8 6 0 4 -21 19 -47 32 -27 14 -50 27 -53 30
-3 3 -18 12 -35 20 -16 8 -32 17 -35 20 -3 3 -16 11 -29 18 -13 8 -38 22 -55
31 -17 10 -206 118 -420 240 -213 123 -407 233 -430 246 -22 13 -88 50 -145
84 -57 33 -109 57 -114 54 -6 -3 -7 -1 -3 5 3 6 -3 14 -16 17 -12 4 -45 23
-74 41 -29 19 -55 34 -57 34 -3 0 -58 31 -123 70 -66 38 -125 70 -131 70 -7 0
-13 4 -13 8 0 5 -16 14 -35 22 -19 8 -35 17 -35 22 0 4 -7 8 -15 8 -8 0 -15 5
-15 10 0 6 -9 10 -19 10 -11 0 -21 4 -23 8 -1 4 -30 23 -63 41 -89 50 -115 65
-175 101 -30 18 -64 36 -75 41 -11 5 -33 18 -50 28 -42 26 -276 161 -279 161
-2 0 -65 36 -140 80 -75 44 -139 80 -141 80 -3 0 -34 18 -70 40 -36 22 -71 41
-78 43 -7 1 -14 4 -17 7 -14 16 -68 49 -72 44 -3 -2 -11 2 -18 11 -7 8 -16 15
-20 15 -5 0 -54 27 -109 60 -56 33 -103 60 -105 60 -2 0 -42 23 -89 50 -47 28
-90 50 -95 50 -6 0 -12 4 -14 8 -3 7 -25 21 -148 90 -19 10 -75 42 -124 71
-49 28 -90 51 -92 51 -2 0 -33 18 -69 40 -36 22 -67 40 -70 40 -2 0 -59 32
-127 71 -169 99 -188 109 -188 104 0 -3 -9 4 -20 15 -11 11 -31 22 -45 26 -14
3 -25 10 -25 14 0 8 -41 22 -74 26 -10 1 -46 -13 -80 -30z m117 -233 c18 -10
34 -21 35 -25 2 -5 7 -8 12 -8 5 0 42 -20 84 -45 42 -24 76 -41 76 -37 0 4 4
2 8 -4 9 -12 167 -104 181 -104 5 0 11 -4 13 -8 4 -9 167 -102 179 -102 5 0 9
-3 9 -8 0 -4 17 -15 38 -25 20 -10 58 -30 83 -45 26 -15 142 -81 258 -147 209
-119 211 -120 188 -137 -12 -10 -28 -23 -34 -28 -7 -6 -13 -8 -13 -6 0 3 -54
-26 -120 -64 -66 -39 -124 -70 -129 -70 -6 0 -14 -6 -18 -14 -4 -8 -12 -15
-18 -16 -5 -1 -41 -19 -80 -41 -94 -53 -109 -63 -116 -72 -3 -5 -10 -9 -15 -9
-17 0 -154 -80 -154 -89 0 -6 -4 -8 -9 -5 -5 3 -25 -5 -45 -19 -20 -14 -41
-25 -46 -25 -6 0 -10 -5 -10 -12 0 -6 -3 -9 -6 -5 -6 6 -104 -50 -116 -67 -4
-6 -8 -8 -8 -4 0 3 -53 -24 -117 -61 -138 -78 -152 -84 -167 -72 -31 24 -124
69 -131 63 -5 -4 -5 -2 -1 5 4 7 -7 16 -29 24 -19 7 -35 16 -35 20 0 4 -15 12
-32 20 -18 7 -35 16 -38 19 -3 4 -30 20 -60 37 -30 17 -106 60 -169 97 -62 36
-115 66 -116 66 -1 0 -64 36 -140 80 -76 44 -139 80 -141 80 -3 0 -220 125
-244 140 -8 6 -25 15 -38 22 -12 6 -21 16 -19 21 3 9 47 36 132 82 17 9 45 24
63 33 18 10 29 21 25 26 -4 4 -3 6 2 4 14 -4 75 23 75 33 0 5 5 9 10 9 6 0 70
34 141 75 72 41 135 75 140 75 5 0 9 5 9 10 0 6 5 10 11 10 6 0 45 20 86 45
40 25 75 45 77 45 4 0 148 81 196 110 39 24 245 140 248 140 2 0 18 -8 35 -17z
m-1609 -1510 c-1 -346 -2 -631 -3 -635 0 -4 -23 6 -50 22 -26 17 -52 30 -56
30 -5 0 -16 6 -24 14 -9 7 -43 28 -76 46 -33 17 -64 35 -70 40 -5 4 -30 19
-55 32 -25 14 -67 38 -95 53 -27 15 -86 49 -130 75 -74 44 -393 226 -492 281
-24 13 -44 28 -45 33 -3 7 181 123 252 158 14 7 57 31 95 53 39 22 87 49 107
60 20 10 34 24 31 29 -4 6 -3 8 2 4 8 -8 137 59 143 74 2 4 8 8 13 8 19 0 408
228 401 235 -4 5 -2 6 3 2 6 -3 17 -2 25 4 8 5 17 9 20 9 3 0 4 -282 4 -627z
m311 582 c28 -16 74 -41 102 -57 29 -15 81 -45 115 -66 35 -20 77 -44 93 -52
17 -8 37 -19 45 -26 8 -6 36 -23 62 -37 25 -14 104 -58 175 -98 70 -40 130
-72 132 -70 2 1 7 -1 10 -6 7 -9 11 -12 156 -95 151 -86 153 -87 159 -80 3 3
6 0 6 -6 0 -7 20 -22 45 -34 l45 -22 0 -200 c2 -1577 0 -2998 -5 -3006 -3 -5
-17 1 -31 13 -14 12 -28 20 -31 19 -3 -2 -9 0 -12 5 -3 4 -26 19 -51 32 -25
13 -53 31 -62 39 -10 8 -18 12 -18 8 0 -4 -12 1 -27 12 -24 16 -170 101 -362
210 -25 14 -65 37 -90 52 -26 14 -53 29 -61 33 -8 4 -37 21 -65 38 -27 16 -58
33 -67 36 -10 3 -18 8 -18 12 0 4 -20 15 -45 26 -25 11 -45 23 -45 28 0 4 -4
7 -9 7 -5 0 -75 38 -157 85 -81 47 -157 86 -168 86 -36 2 -61 -3 -67 -13 -3
-5 -9 -9 -13 -8 -7 2 -225 -118 -236 -130 -3 -3 -34 -20 -70 -39 -36 -19 -67
-37 -70 -40 -3 -4 -16 -12 -30 -18 -26 -13 -121 -66 -180 -101 -19 -11 -51
-29 -70 -40 -19 -11 -127 -72 -240 -137 -286 -164 -376 -215 -382 -215 -7 0
-2 3049 4 3055 4 4 24 -3 45 -15 21 -13 54 -32 73 -42 19 -11 50 -29 68 -40
17 -11 32 -16 32 -11 0 4 5 0 11 -9 5 -10 15 -18 21 -18 6 0 19 -6 27 -14 9
-8 23 -16 31 -18 8 -2 17 -6 20 -9 3 -3 36 -23 75 -45 38 -21 77 -43 87 -49 9
-5 29 -17 45 -26 15 -8 76 -43 135 -77 59 -34 111 -62 117 -62 5 0 11 -4 13
-8 4 -11 249 -147 259 -145 5 2 9 -1 9 -6 0 -14 218 -132 256 -138 61 -10 112
26 121 87 2 14 6 354 7 755 2 402 4 732 4 734 1 2 8 -1 15 -6 6 -6 35 -23 62
-38z m2886 20 c22 -14 50 -30 62 -35 23 -10 58 -31 67 -40 15 -15 68 -39 74
-33 3 3 6 1 6 -5 0 -6 17 -20 38 -30 20 -10 92 -51 159 -90 68 -40 126 -72
129 -72 4 0 22 -11 41 -26 18 -14 33 -22 33 -19 0 4 13 -3 29 -14 16 -12 34
-21 40 -21 6 0 11 -3 11 -8 0 -8 61 -38 73 -34 4 1 7 -2 7 -7 0 -4 63 -44 140
-87 77 -43 139 -83 137 -88 -2 -5 -10 -13 -18 -18 -17 -10 -183 -104 -224
-128 -16 -9 -73 -41 -125 -71 -52 -29 -96 -57 -98 -61 -2 -5 -8 -8 -14 -8 -5
0 -48 -22 -95 -50 -47 -27 -89 -50 -94 -50 -5 0 -9 -3 -9 -7 0 -5 -10 -13 -23
-18 -35 -17 -111 -59 -117 -66 -3 -3 -12 -8 -20 -11 -8 -3 -69 -38 -135 -76
-66 -39 -122 -69 -124 -66 -3 3 -5 1092 -2 1227 1 20 3 37 6 37 3 0 24 -11 46
-25z m-284 -1582 l-2 -1597 -540 -309 c-297 -169 -572 -326 -612 -348 l-72
-40 0 1600 1 1599 601 345 c331 190 608 346 614 346 10 1 12 -330 10 -1596z
m1593 833 c0 4 8 0 18 -8 9 -8 42 -28 72 -44 30 -16 59 -33 65 -37 41 -31 129
-76 139 -70 6 3 8 3 4 -2 -4 -4 2 -13 15 -20 12 -7 38 -21 57 -32 19 -11 64
-37 100 -58 36 -20 71 -41 78 -47 6 -6 12 -7 12 -3 0 5 8 1 18 -7 9 -8 42 -28
72 -44 30 -16 57 -31 60 -34 9 -11 275 -159 284 -159 5 1 12 -3 15 -8 7 -11
128 -83 139 -83 4 0 18 -9 31 -19 l23 -18 -28 -20 c-16 -10 -55 -32 -86 -49
-32 -16 -58 -32 -58 -36 0 -5 -5 -8 -11 -8 -6 0 -38 -16 -72 -36 -57 -34 -124
-72 -172 -98 -11 -6 -22 -13 -25 -16 -3 -3 -16 -11 -30 -18 -14 -6 -32 -16
-40 -22 -45 -29 -264 -150 -271 -150 -5 0 -9 -3 -9 -8 0 -4 -17 -15 -37 -25
-58 -27 -103 -54 -98 -59 3 -3 -1 -5 -8 -5 -7 0 -72 -34 -144 -76 l-132 -77
-145 84 c-80 46 -146 81 -146 78 0 -4 -4 -2 -8 4 -9 13 -265 160 -271 156 -2
-2 -7 0 -10 5 -3 5 -143 87 -311 183 -168 95 -311 178 -318 185 -11 10 1 20
65 55 43 24 81 48 85 54 4 6 8 7 8 3 0 -5 12 0 28 11 15 10 59 36 97 57 39 22
72 41 75 44 3 4 18 13 34 21 95 48 384 219 381 224 -3 3 -2 4 1 1 6 -4 61 22
74 35 4 4 29 18 115 64 11 6 22 13 25 16 3 3 16 11 30 18 65 31 165 92 168
101 3 8 10 8 23 1 10 -6 19 -8 19 -4z m-5966 -684 c-1 -345 -2 -630 -3 -635
-1 -4 -19 4 -41 18 -22 14 -42 25 -44 25 -3 0 -43 23 -90 50 -47 28 -89 50
-95 50 -6 0 -11 3 -11 8 0 4 -28 22 -62 40 -35 18 -85 47 -113 63 -27 17 -58
33 -67 36 -10 3 -18 8 -18 12 0 4 -20 15 -45 26 -25 11 -45 23 -45 28 0 4 -4
7 -9 7 -5 0 -95 50 -200 110 -105 61 -196 110 -201 110 -6 0 -10 5 -10 10 0 6
-6 10 -13 10 -7 0 -18 5 -25 12 -14 14 -28 5 286 185 128 73 237 133 243 133
5 0 7 5 3 12 -4 7 -3 8 4 4 6 -4 20 1 30 11 10 10 24 19 31 21 22 4 181 99
176 104 -3 2 1 5 8 5 16 0 230 122 239 136 4 7 8 8 8 4 0 -6 65 27 65 33 0 0
-1 -282 -1 -628z m-1212 -212 c57 -32 108 -64 115 -70 7 -5 19 -10 28 -10 8 0
15 -4 15 -8 0 -4 15 -15 33 -23 17 -9 108 -59 200 -112 92 -53 172 -97 178
-97 5 0 9 -4 9 -9 0 -7 44 -25 45 -18 0 1 11 -8 25 -20 22 -22 34 -27 53 -24
4 0 7 -4 7 -10 0 -5 15 -17 33 -25 17 -8 53 -27 79 -42 25 -15 99 -57 163 -93
l118 -67 -69 -40 c-201 -118 -386 -222 -395 -222 -5 0 -9 -4 -9 -9 0 -5 -9
-12 -19 -16 -11 -3 -181 -98 -377 -211 l-357 -204 -96 54 c-53 30 -112 63
-132 74 -72 40 -84 47 -89 52 -5 5 -32 20 -130 71 -25 13 -46 27 -48 32 -2 4
-10 7 -18 7 -8 0 -14 5 -14 12 0 6 -3 8 -7 5 -3 -4 -13 -1 -22 7 -9 7 -41 27
-71 43 -30 17 -95 53 -144 82 -49 28 -90 51 -91 51 -2 0 -32 17 -66 38 -35 21
-89 52 -119 69 -84 46 -129 72 -156 90 l-26 16 76 42 c42 23 74 44 71 47 -3 2
1 5 8 5 15 0 201 104 205 115 2 5 8 8 14 8 9 0 281 153 408 229 19 11 41 24
49 28 13 6 286 162 356 204 17 9 38 15 47 13 9 -3 63 -31 120 -64z m5970 -81
c66 -38 123 -69 126 -69 3 0 13 -6 21 -14 9 -7 45 -29 81 -49 36 -19 89 -49
118 -66 29 -17 57 -31 61 -31 5 0 14 -7 21 -15 7 -8 16 -12 21 -9 5 3 9 1 9
-3 0 -5 21 -20 48 -33 26 -14 49 -28 50 -32 2 -5 8 -8 13 -8 4 0 41 -19 81
-43 40 -24 80 -46 88 -49 8 -4 87 -49 175 -100 l160 -94 1 -1602 c0 -881 -1
-1602 -2 -1602 -1 0 -100 56 -220 125 -120 69 -221 125 -226 125 -4 0 -8 3 -8
8 0 4 -20 16 -45 27 -25 11 -45 23 -45 28 0 4 -4 7 -9 7 -9 0 -106 53 -161 88
-14 9 -28 15 -32 14 -5 -1 -8 3 -8 8 0 6 -5 10 -10 10 -6 0 -35 16 -65 35 -30
19 -55 32 -55 28 0 -3 -8 1 -17 9 -10 8 -43 28 -73 44 -30 16 -57 31 -60 34
-9 10 -152 90 -160 90 -33 0 -33 12 -32 1618 0 873 1 1593 1 1601 1 11 4 11
16 1 9 -7 70 -44 137 -81z m2533 -614 c0 -445 -4 -698 -10 -704 -6 -5 -30 -20
-55 -34 -25 -13 -94 -52 -155 -87 -60 -35 -123 -71 -140 -80 -16 -9 -75 -43
-130 -75 -55 -32 -125 -72 -155 -88 -30 -16 -59 -33 -65 -37 -5 -4 -30 -19
-55 -32 -25 -14 -73 -42 -107 -62 -34 -20 -66 -36 -72 -36 -6 0 -11 -4 -11 -9
0 -5 -8 -11 -17 -14 -18 -6 -119 -62 -138 -77 -29 -22 -108 -60 -114 -55 -3 4
-6 317 -6 697 l0 690 55 33 c30 18 130 76 222 128 92 52 165 96 163 99 -3 3 1
5 7 5 14 0 348 188 357 200 3 5 11 9 16 10 26 4 323 181 317 188 -4 5 -2 5 4
2 6 -3 24 3 40 13 16 10 34 19 39 19 7 1 10 -235 10 -694z m412 596 c40 -22
77 -41 83 -41 5 0 10 -3 10 -7 0 -5 31 -24 68 -43 37 -19 69 -37 72 -41 3 -3
32 -20 65 -39 33 -18 74 -41 90 -50 149 -86 182 -103 193 -103 6 0 10 -3 7 -5
-3 -3 16 -17 42 -32 27 -14 71 -39 98 -55 28 -15 59 -33 70 -39 178 -98 245
-142 246 -161 0 -26 0 -1300 0 -1343 -1 -37 -21 -41 -53 -9 -10 10 -23 15 -28
12 -6 -4 -10 -2 -10 2 0 5 -21 20 -47 33 -27 14 -50 28 -53 31 -3 3 -40 25
-84 50 -43 24 -95 53 -115 65 -20 11 -63 35 -96 53 -33 19 -72 43 -87 53 -16
11 -28 16 -28 12 0 -4 -8 0 -17 8 -10 8 -43 28 -73 44 -30 16 -57 32 -60 35
-12 14 -68 38 -75 31 -5 -4 -5 -2 -1 5 4 7 -7 16 -29 24 -19 7 -35 16 -35 20
0 4 -15 12 -32 20 -18 7 -35 16 -38 19 -4 6 -61 38 -170 96 -19 11 -40 24 -47
31 -7 6 -21 14 -31 17 -17 6 -18 39 -17 699 1 380 3 696 3 700 2 8 33 -8 179
-92z m-9162 -4627 c0 -1759 -1 -3229 -3 -3265 l-4 -67 -296 170 c-163 94 -315
181 -337 193 -22 13 -161 93 -310 178 l-270 154 -1 3259 c0 1793 1 3262 3
3265 1 4 276 -149 610 -340 l608 -348 0 -3199z m1460 2286 l2 -1600 -21 -6
c-12 -4 -23 -10 -26 -13 -3 -4 -34 -23 -70 -43 -127 -70 -165 -91 -212 -119
-27 -16 -53 -29 -59 -29 -6 0 -8 -4 -5 -8 3 -5 0 -9 -7 -9 -7 0 -52 -24 -102
-53 -49 -29 -110 -64 -135 -78 -25 -14 -103 -58 -173 -98 -71 -41 -133 -74
-139 -74 -5 0 -7 -4 -4 -8 3 -5 0 -9 -7 -9 -7 0 -31 -12 -54 -26 -24 -15 -45
-27 -47 -27 -2 0 -39 -20 -81 -46 -43 -25 -79 -43 -81 -41 -3 2 -6 722 -7
1600 l-2 1596 75 43 c41 23 78 47 82 53 4 5 8 6 8 1 0 -5 6 -4 13 2 12 10 258
151 287 165 8 4 27 15 42 25 15 9 165 95 333 191 168 96 305 178 305 183 0 5
4 7 8 4 5 -3 21 4 37 14 16 11 31 17 34 14 2 -2 5 -724 6 -1604z m7424 836
c29 -24 149 -84 157 -78 4 4 4 1 0 -5 -4 -7 -3 -13 1 -13 5 0 81 -41 168 -91
88 -50 187 -107 220 -126 33 -18 76 -41 95 -51 19 -9 37 -20 40 -23 10 -12
265 -154 273 -151 4 1 7 -2 7 -7 0 -5 8 -11 18 -15 38 -13 214 -122 212 -131
-1 -6 -23 -21 -48 -35 -26 -14 -49 -27 -52 -30 -3 -3 -22 -14 -42 -25 -21 -11
-38 -24 -38 -29 0 -5 -3 -7 -6 -4 -7 7 -176 -89 -186 -105 -4 -7 -8 -8 -8 -4
0 9 -71 -31 -81 -46 -3 -5 -10 -9 -15 -9 -9 0 -71 -31 -106 -53 -9 -5 -47 -28
-85 -49 -37 -22 -71 -44 -75 -50 -4 -6 -8 -8 -8 -4 0 9 -173 -91 -182 -105 -4
-7 -8 -8 -8 -3 0 4 -11 1 -24 -8 -14 -8 -42 -25 -63 -37 -21 -12 -68 -39 -105
-60 -61 -36 -108 -50 -108 -31 0 4 -10 12 -23 17 -38 18 -132 70 -137 76 -3 3
-30 19 -60 35 -30 16 -57 31 -60 34 -3 3 -23 15 -45 27 -22 11 -56 30 -75 42
-93 54 -135 76 -142 74 -4 -2 -8 1 -8 6 0 5 -17 18 -37 29 -63 33 -117 64
-130 74 -7 6 -13 7 -13 2 0 -5 -4 -4 -8 2 -7 10 -108 74 -117 74 -3 0 -22 10
-43 23 -38 24 -125 73 -197 111 -22 12 -42 24 -45 27 -3 3 -16 12 -29 19 l-24
12 29 24 c16 13 38 26 49 30 11 4 43 21 70 39 28 17 65 38 83 46 17 7 32 17
32 21 0 5 4 8 9 8 13 0 155 82 163 94 4 6 8 7 8 2 0 -5 8 -3 18 6 9 8 28 20
42 26 14 7 34 18 45 25 11 7 91 53 178 102 202 115 186 106 351 202 77 44 143
81 145 82 3 1 12 -5 20 -13z m-5599 -272 c14 -8 41 -23 60 -32 19 -9 37 -19
40 -22 9 -9 65 -41 103 -58 20 -9 37 -20 37 -24 0 -5 5 -8 11 -8 6 0 23 -9 38
-19 15 -11 34 -21 42 -23 8 -2 16 -6 19 -9 5 -7 85 -54 170 -101 25 -14 95
-53 155 -88 61 -35 128 -73 150 -84 22 -11 42 -23 45 -27 3 -3 24 -16 47 -28
23 -11 44 -25 47 -29 4 -7 -162 -107 -389 -233 -16 -9 -208 -119 -425 -244
l-395 -227 -45 22 c-25 12 -86 46 -137 76 -51 30 -99 54 -108 54 -9 0 -14 4
-10 9 5 9 -32 27 -47 23 -5 -1 -8 2 -8 6 0 11 -75 53 -84 47 -3 -3 -4 -2 -1 1
4 6 -279 173 -300 177 -5 1 -12 4 -15 8 -7 7 -109 69 -115 69 -3 0 -40 21 -83
46 -42 25 -86 50 -97 56 -143 82 -175 101 -175 109 0 5 11 11 25 15 14 3 25 9
25 13 0 3 23 17 50 30 28 14 46 29 43 35 -3 6 -3 8 2 4 4 -4 26 3 49 17 22 13
65 36 94 52 29 16 61 36 71 44 9 8 22 15 28 16 11 2 385 214 393 223 3 3 34
20 70 39 36 19 67 37 70 40 3 3 34 21 70 40 36 19 67 37 70 40 3 4 16 12 30
18 14 7 49 26 78 42 l53 29 112 -64 c62 -36 123 -71 137 -80z m2546 -1181 c-4
-4 -58 18 -66 27 -9 11 -539 310 -549 310 -5 0 -11 4 -13 8 -3 7 -223 136
-368 215 -30 17 -68 38 -83 48 l-29 17 44 25 c23 14 88 51 143 82 55 32 120
69 145 83 25 13 72 40 105 60 33 19 80 46 105 60 25 14 134 76 244 139 109 62
202 113 207 113 4 0 9 3 11 8 2 4 26 19 53 34 l50 27 3 -626 c1 -344 0 -628
-2 -630z m1828 494 c3 4 6 1 6 -5 0 -11 38 -28 53 -24 5 1 6 -1 4 -5 -3 -5 25
-24 61 -43 37 -19 73 -41 80 -47 7 -7 20 -13 28 -13 8 0 14 -4 14 -9 0 -7 35
-22 48 -20 2 0 10 -8 18 -18 7 -10 14 -13 14 -8 0 6 3 6 8 0 10 -14 404 -238
419 -238 7 0 10 -4 7 -8 -3 -5 7 -11 21 -15 14 -3 25 -10 25 -15 0 -5 5 -9 10
-9 10 0 243 -132 265 -150 7 -6 10 -547 9 -1592 -1 -870 -2 -1589 -3 -1595 -1
-18 -23 -16 -46 2 -18 14 -107 66 -230 135 -27 15 -105 59 -172 97 -67 39
-128 73 -135 77 -13 6 -56 31 -115 68 -18 11 -33 17 -33 13 0 -3 -10 3 -22 15
-20 19 -33 24 -50 21 -5 0 -8 4 -8 9 0 6 -8 14 -18 18 -33 14 -227 126 -230
134 -2 4 -12 8 -23 8 -10 0 -19 4 -19 9 0 5 -10 13 -22 18 -13 4 -41 19 -63
32 l-40 24 1 1596 c1 878 2 1599 3 1603 0 4 30 -10 65 -31 35 -22 67 -37 70
-34z m2551 -2372 c0 -1339 -4 -2435 -8 -2435 -12 0 -171 -92 -179 -104 -4 -6
-8 -8 -8 -4 0 7 -104 -52 -127 -72 -7 -6 -13 -8 -13 -5 0 4 -13 -3 -29 -14
-16 -12 -34 -21 -40 -21 -6 0 -11 -4 -11 -10 0 -5 -6 -10 -14 -10 -8 0 -22 -8
-32 -17 -10 -10 -19 -17 -21 -15 -8 6 -282 -156 -275 -162 4 -4 3 -6 -3 -4
-14 4 -75 -23 -75 -33 0 -5 -9 -9 -19 -9 -11 0 -21 -4 -23 -8 -1 -5 -28 -22
-58 -39 -79 -43 -104 -57 -110 -63 -3 -3 -35 -21 -72 -40 -36 -19 -65 -37 -63
-41 2 -3 -1 -6 -8 -6 -21 0 -137 -69 -129 -77 4 -4 3 -6 -3 -4 -14 4 -75 -23
-75 -33 0 -5 -9 -9 -19 -9 -11 0 -21 -4 -23 -8 -1 -5 -28 -22 -58 -39 -127
-69 -175 -98 -178 -105 -2 -4 -10 -8 -18 -8 -8 0 -14 -5 -14 -12 0 -6 -3 -8
-6 -5 -6 5 -90 -37 -104 -53 -3 -3 -34 -20 -70 -39 -36 -19 -67 -37 -70 -41
-3 -3 -20 -12 -37 -19 -19 -8 -30 -18 -26 -25 3 -6 3 -8 -2 -4 -4 4 -26 -3
-49 -16 -22 -13 -57 -32 -76 -43 -19 -11 -62 -35 -95 -53 -33 -18 -63 -37 -66
-42 -3 -5 -10 -10 -15 -10 -9 0 -59 -27 -147 -80 -26 -15 -49 -28 -51 -28 -2
0 -34 -18 -70 -40 -36 -22 -70 -40 -76 -40 -6 0 -8 -4 -5 -10 3 -5 0 -8 -7 -5
-11 4 -13 137 -12 698 2 749 1 723 10 714 7 -6 85 39 96 57 4 6 8 8 8 3 0 -8
113 53 118 65 2 4 7 8 12 8 5 0 163 88 352 196 189 108 357 204 373 213 17 10
61 35 99 57 37 21 94 53 125 70 165 93 226 132 244 156 21 28 21 32 21 1747 0
1702 0 1719 20 1731 11 7 40 24 65 38 25 13 58 34 74 44 15 11 27 16 27 12 0
-4 8 0 18 8 9 8 53 35 97 58 44 23 87 49 96 56 8 8 18 14 22 14 4 0 39 19 79
43 40 24 80 46 88 50 8 4 33 18 55 31 142 82 239 136 246 136 4 0 13 8 18 18
6 9 11 14 11 9 0 -4 18 4 40 18 22 14 43 25 48 25 4 0 18 8 32 18 35 25 173
101 185 102 7 0 10 -818 10 -2435z m-8440 2273 c5 4 5 1 1 -5 -4 -8 -1 -13 7
-13 8 0 20 -7 27 -15 7 -8 16 -12 21 -9 5 3 9 2 9 -3 0 -4 12 -14 28 -20 15
-7 43 -23 62 -35 19 -12 37 -22 40 -23 3 0 48 -26 102 -58 53 -31 101 -57 107
-57 6 0 11 -4 11 -10 0 -5 4 -10 10 -10 5 0 47 -22 94 -50 47 -27 87 -50 91
-50 3 0 11 -5 18 -10 12 -11 325 -190 332 -190 1 0 33 -18 69 -40 36 -22 70
-40 76 -40 5 0 10 -4 10 -10 0 -5 7 -10 15 -10 8 0 16 -3 17 -7 4 -19 4 -1403
0 -1403 -9 0 -107 55 -110 63 -2 4 -7 7 -12 7 -9 0 -263 143 -303 171 -15 11
-32 17 -37 14 -6 -3 -10 -2 -10 3 0 8 -255 158 -429 252 -25 14 -48 28 -51 31
-3 3 -20 12 -37 20 -18 8 -33 17 -33 21 0 5 -5 8 -10 8 -6 0 -28 11 -50 25
-22 14 -40 22 -40 18 0 -4 -7 2 -15 13 -8 10 -15 15 -15 11 0 -8 -60 30 -70
44 -4 6 -5 1364 -1 1392 0 5 16 -1 34 -12 19 -11 38 -17 42 -13z m2608 -2015
c-2 -1127 -3 -2162 -3 -2301 l0 -254 -47 28 c-27 15 -66 38 -88 50 -22 12 -96
54 -163 93 -68 39 -126 71 -130 71 -3 0 -13 6 -21 14 -9 7 -45 29 -81 49 -36
19 -89 49 -118 66 -29 17 -57 31 -61 31 -5 0 -14 7 -21 15 -7 8 -16 12 -21 9
-5 -3 -9 -1 -9 3 0 5 -17 17 -37 28 -21 11 -66 37 -100 58 -35 20 -65 37 -69
37 -3 0 -19 9 -35 21 -16 11 -29 17 -29 12 0 -4 -4 -3 -8 3 -6 10 -64 45 -157
95 l-30 16 -1 1601 0 1602 230 132 c127 72 240 137 251 142 11 6 22 13 25 17
5 5 70 40 117 63 13 6 23 14 23 19 0 4 4 7 9 7 6 0 86 43 178 96 92 53 185
105 206 116 20 11 37 25 37 31 0 6 3 7 7 4 3 -4 20 2 37 12 52 32 101 60 106
60 3 1 4 -920 3 -2046z m382 1959 c39 -22 86 -49 105 -60 19 -10 141 -80 270
-154 129 -74 255 -146 280 -160 25 -14 103 -58 173 -98 113 -64 126 -74 110
-85 -10 -7 -70 -42 -133 -77 -63 -36 -131 -75 -150 -86 -19 -11 -73 -41 -120
-68 -47 -27 -86 -52 -88 -56 -2 -4 -8 -8 -13 -8 -6 0 -114 -60 -240 -132 -127
-73 -257 -148 -290 -166 l-59 -32 0 635 0 636 43 -24 c23 -14 74 -43 112 -65z
m1220 -696 c11 -7 40 -24 65 -38 40 -22 192 -109 305 -174 22 -13 54 -31 70
-40 17 -9 73 -42 125 -73 52 -30 98 -56 102 -56 4 0 13 -6 20 -12 6 -7 15 -13
19 -13 4 0 36 -17 70 -38 35 -21 89 -52 119 -69 151 -84 290 -166 290 -172 0
-7 -128 -81 -141 -81 -5 0 -9 -4 -9 -9 0 -5 -12 -14 -27 -20 -36 -15 -87 -42
-93 -50 -3 -4 -16 -12 -30 -19 -14 -6 -32 -16 -40 -22 -8 -6 -91 -53 -185
-106 -238 -135 -229 -130 -340 -194 -55 -32 -117 -67 -137 -79 -21 -11 -55
-31 -75 -43 -140 -81 -138 -80 -174 -61 -19 10 -36 20 -39 24 -5 5 -35 22
-170 97 -25 14 -61 35 -81 48 -20 13 -40 20 -43 17 -3 -4 -6 -2 -6 4 0 10 -75
52 -75 42 0 -2 -11 6 -24 18 -13 12 -28 20 -33 17 -4 -3 -8 -1 -8 4 0 5 -15
16 -32 23 -18 7 -42 21 -52 31 -11 10 -23 18 -27 18 -5 0 -47 23 -95 50 -48
28 -91 50 -95 50 -5 0 -9 4 -9 9 0 5 -10 13 -22 17 -13 3 -35 15 -50 26 -16
11 -28 16 -28 11 0 -4 -4 -3 -8 3 -7 10 -218 134 -230 134 -4 1 -20 11 -35 24
l-29 23 31 13 c17 7 31 16 31 21 0 5 3 8 8 7 4 -2 23 7 42 18 19 12 157 90
305 175 149 84 272 156 275 159 3 3 34 20 70 39 36 19 67 37 70 41 3 3 20 12
37 19 19 8 30 18 26 25 -3 6 -3 8 2 4 8 -8 114 47 126 65 3 5 8 7 10 6 6 -5
123 63 131 75 4 6 8 7 8 3 0 -5 10 -1 22 7 27 20 38 20 63 2z m-4330 -857 c39
-22 74 -41 79 -42 5 -1 16 -8 25 -15 16 -14 290 -170 451 -258 19 -11 40 -25
48 -32 7 -7 17 -10 22 -7 5 3 10 1 12 -4 1 -4 53 -36 113 -71 61 -34 130 -74
154 -88 124 -70 147 -83 161 -92 8 -6 30 -18 48 -27 17 -9 32 -20 32 -24 0 -3
-24 -19 -54 -35 -30 -16 -53 -31 -51 -35 2 -3 -1 -6 -8 -6 -7 0 -84 -42 -172
-93 -88 -51 -176 -101 -195 -112 -19 -10 -53 -30 -75 -43 -22 -13 -55 -30 -72
-39 -18 -8 -33 -20 -33 -26 0 -6 -4 -9 -9 -5 -5 3 -15 -1 -23 -8 -7 -7 -15
-13 -18 -14 -3 0 -40 -20 -83 -44 -42 -24 -90 -51 -105 -59 -15 -8 -49 -28
-77 -45 -27 -16 -70 -40 -95 -54 -25 -13 -63 -35 -85 -47 -63 -37 -66 -38 -89
-24 -22 14 -109 64 -186 108 -25 14 -98 56 -162 93 -64 37 -140 81 -170 97
-29 17 -140 80 -247 141 -106 61 -196 111 -199 111 -3 0 -13 6 -21 14 -9 7
-47 30 -84 50 -118 64 -128 71 -115 84 7 7 17 12 24 12 6 0 16 6 22 13 6 6 39
27 74 45 35 19 77 42 93 53 17 10 36 22 44 26 8 3 62 34 121 68 59 34 113 65
121 69 8 4 23 12 34 19 11 7 58 34 105 60 47 26 92 52 100 57 8 5 56 32 105
60 50 29 93 57 97 64 4 6 8 7 8 3 0 -5 15 0 33 11 51 31 98 58 152 87 28 15
54 31 60 36 13 13 14 13 90 -32z m3508 -341 c269 -153 494 -280 500 -281 19
-4 49 -39 41 -47 -5 -4 -29 -19 -54 -32 -57 -32 -570 -325 -590 -337 -51 -32
-439 -251 -444 -251 -3 0 -6 284 -6 630 l0 631 33 -17 c17 -9 252 -142 520
-296z m2133 -318 c0 -564 -2 -630 -16 -624 -8 3 -23 9 -32 11 -10 3 -18 9 -18
13 0 8 -38 23 -52 21 -5 -1 -8 3 -8 7 0 10 -101 68 -112 64 -5 -1 -8 1 -8 6 0
4 -21 19 -47 32 -27 14 -50 28 -53 32 -3 4 -17 12 -30 17 -14 6 -41 21 -60 33
-19 11 -53 31 -75 43 -22 13 -80 46 -128 74 -49 28 -92 51 -96 51 -4 0 -18 9
-31 20 -12 11 -26 17 -30 15 -5 -3 -10 -1 -12 3 -3 8 -124 82 -133 82 -3 0
-29 16 -60 35 -30 19 -66 40 -80 45 -35 13 -31 24 15 45 22 10 38 21 35 25 -2
4 1 7 8 7 20 0 147 74 147 86 0 5 3 7 6 4 7 -6 94 40 105 56 3 5 8 8 10 7 10
-5 78 34 73 42 -3 4 1 5 9 2 8 -3 20 2 27 11 7 8 19 15 27 15 7 0 16 6 19 13
3 8 10 14 17 14 19 1 118 59 112 66 -3 4 -2 5 2 2 7 -6 114 54 125 69 4 6 8 8
8 4 0 -4 21 6 48 22 26 16 75 43 109 61 34 18 59 37 56 42 -3 6 -1 7 5 3 6 -4
24 1 39 11 37 25 67 42 74 42 3 1 5 -283 5 -629z m-1276 -169 c3 -4 23 -15 45
-26 22 -11 42 -23 43 -27 2 -5 8 -8 14 -8 5 0 23 -9 39 -21 16 -11 29 -17 29
-12 0 4 4 3 8 -2 6 -9 144 -91 182 -108 8 -4 29 -16 45 -26 30 -20 72 -44 135
-77 19 -11 37 -21 40 -24 12 -13 196 -113 208 -113 6 0 10 -2 7 -5 -2 -3 75
-50 173 -105 97 -55 179 -102 182 -104 3 -3 -4 -11 -15 -18 -11 -8 -26 -20
-34 -27 -8 -7 -20 -13 -25 -14 -21 -3 -255 -142 -251 -148 3 -3 2 -4 -1 -1 -8
5 -137 -65 -142 -77 -2 -4 -8 -8 -13 -8 -11 0 -271 -148 -279 -158 -3 -4 -11
-8 -18 -10 -7 -1 -31 -13 -52 -27 -22 -14 -44 -25 -50 -25 -5 0 -10 -4 -10 -8
0 -5 -16 -14 -35 -22 -19 -8 -35 -17 -35 -22 0 -4 -4 -8 -9 -8 -16 0 -191
-102 -191 -111 0 -5 -3 -8 -7 -7 -5 1 -18 -1 -30 -6 -14 -4 -33 -1 -51 8 -16
8 -32 13 -36 11 -3 -3 -4 -2 -1 2 3 3 -16 18 -42 33 -27 14 -69 38 -95 53 -27
15 -69 39 -95 54 -27 14 -65 37 -85 50 -21 12 -40 23 -43 23 -3 0 -35 18 -71
40 -36 22 -68 40 -70 40 -2 0 -33 18 -69 40 -36 22 -67 40 -69 40 -2 0 -65 36
-140 79 -75 44 -136 77 -136 73 0 -4 -4 -2 -8 4 -4 5 -29 23 -57 38 -122 69
-141 80 -158 91 -19 13 -16 15 288 189 55 32 107 61 115 66 37 23 521 296 570
323 30 16 61 37 68 45 6 9 12 12 12 8 0 -4 16 2 35 14 99 61 117 67 150 51 16
-8 32 -17 35 -20z m-5680 -89 c19 -12 51 -29 70 -40 39 -21 73 -41 170 -97
129 -75 146 -85 181 -104 20 -11 39 -17 43 -14 3 4 6 1 6 -5 0 -10 89 -63 105
-62 3 0 14 -9 25 -20 12 -12 25 -18 30 -15 6 4 10 2 10 -3 0 -8 50 -36 59 -32
2 1 7 -2 10 -7 7 -10 0 -5 231 -137 l185 -105 -1 -812 c0 -732 2 -815 16 -842
12 -23 61 -56 195 -133 99 -56 184 -100 190 -97 5 4 7 3 3 -2 -7 -7 326 -203
346 -203 5 0 12 -4 15 -9 10 -14 101 -65 101 -56 0 4 4 3 8 -3 4 -7 24 -21 45
-33 20 -11 54 -31 75 -42 20 -12 78 -45 127 -74 50 -29 95 -54 100 -55 6 -1
17 -7 25 -14 8 -7 40 -27 70 -43 30 -17 75 -41 100 -55 l45 -26 0 -688 c1
-379 -1 -694 -3 -701 -2 -8 -13 -6 -35 7 -17 10 -35 16 -40 13 -6 -3 -7 -1 -3
5 3 6 -3 14 -16 17 -12 4 -45 23 -74 41 -29 19 -57 34 -61 34 -5 0 -24 11 -44
24 -20 13 -60 38 -90 54 -83 45 -171 96 -201 116 -16 10 -28 14 -28 10 0 -5
-4 -4 -8 2 -4 6 -74 49 -157 96 -82 47 -298 169 -478 272 -180 103 -349 199
-375 213 -26 15 -78 45 -117 67 -38 23 -83 48 -100 56 -16 8 -32 18 -35 21 -3
3 -36 23 -75 43 -38 21 -84 47 -101 57 -17 10 -35 15 -39 11 -5 -4 -6 -2 -2 4
3 5 -26 27 -66 48 -40 21 -85 46 -102 57 -16 10 -47 26 -67 36 -21 10 -38 21
-38 25 0 5 -4 8 -9 8 -5 0 -64 32 -131 70 -67 39 -126 70 -131 70 -5 0 -9 5
-9 10 0 6 -6 10 -14 10 -7 0 -19 6 -25 14 -9 10 -12 393 -12 1497 1 816 1
1506 1 1532 l0 49 33 -20 c17 -11 48 -29 67 -40z m2586 -648 l1 -694 -111 -62
c-61 -34 -112 -66 -114 -70 -2 -4 -7 -8 -12 -8 -10 0 -599 -334 -617 -350 -7
-5 -15 -10 -18 -10 -4 0 -44 -23 -91 -50 -47 -28 -89 -50 -94 -50 -6 0 -10 -3
-10 -7 0 -5 -10 -13 -23 -19 -12 -6 -48 -25 -79 -42 -32 -18 -59 -31 -59 -29
-4 8 -3 1390 1 1396 3 4 32 22 65 41 33 19 63 38 66 43 3 5 8 7 10 6 4 -3 350
191 359 201 3 3 20 12 37 19 18 7 31 17 28 20 -2 4 1 8 8 8 10 0 115 57 282
155 28 16 61 34 75 41 14 6 31 17 38 24 7 7 17 13 22 13 12 0 133 72 142 85 4
5 8 6 8 2 0 -4 17 4 37 17 20 14 39 23 42 20 3 -3 6 -318 7 -700z m4371 -1652
c1 -829 0 -1517 -3 -1529 -2 -13 -8 -23 -13 -23 -5 0 -70 -36 -145 -80 -76
-44 -142 -80 -147 -80 -6 0 -8 -4 -5 -8 3 -5 -1 -9 -7 -9 -7 0 -42 -17 -77
-38 -36 -21 -90 -51 -120 -68 -30 -16 -60 -35 -65 -41 -6 -6 -15 -12 -22 -13
-6 -1 -69 -36 -140 -76 -70 -41 -148 -85 -173 -99 -62 -34 -104 -59 -177 -102
-34 -20 -66 -36 -72 -36 -6 0 -11 -3 -11 -7 0 -5 -11 -13 -25 -20 -22 -10 -25
-9 -26 10 -1 30 -1 3019 0 3034 1 6 22 24 49 39 73 44 124 73 160 91 17 9 32
21 32 25 0 5 4 7 9 3 5 -3 16 0 23 7 8 7 29 21 48 32 101 55 149 82 182 103
21 13 42 23 48 23 5 0 10 4 10 8 0 4 12 13 28 19 56 25 111 61 104 69 -4 5 -3
6 2 2 5 -4 23 1 40 11 17 11 49 29 71 41 22 12 56 31 75 42 19 12 60 35 90 51
30 17 72 41 92 54 21 13 42 23 48 23 5 0 10 4 10 9 0 5 10 11 23 15 12 3 32
14 42 25 13 12 24 15 30 9 7 -6 11 -527 12 -1516z m495 1375 c24 -13 61 -34
83 -47 22 -13 60 -34 85 -48 25 -14 62 -36 82 -49 21 -12 40 -23 43 -23 2 0
39 -20 81 -45 41 -25 80 -45 85 -45 5 0 9 -3 9 -8 0 -4 20 -16 45 -27 25 -11
45 -23 45 -27 0 -5 4 -8 9 -8 9 0 106 -53 161 -88 14 -9 28 -15 33 -14 4 1 7
-3 7 -8 0 -6 6 -10 13 -10 6 0 26 -11 42 -25 17 -14 26 -25 20 -24 -24 3 -36
-2 -29 -13 5 -7 3 -8 -5 -4 -7 5 -20 1 -29 -6 -9 -8 -48 -32 -87 -53 -38 -21
-73 -42 -76 -47 -3 -6 -10 -10 -15 -10 -20 -1 -73 -32 -68 -40 3 -4 -1 -5 -9
-2 -8 3 -20 -2 -27 -11 -7 -8 -18 -15 -26 -15 -7 0 -18 -8 -23 -17 -6 -10 -11
-14 -11 -9 0 4 -10 2 -22 -6 -13 -8 -54 -32 -93 -53 -38 -21 -76 -45 -82 -53
-7 -9 -13 -12 -13 -8 0 5 -11 1 -24 -7 -13 -9 -48 -29 -78 -45 -29 -17 -82
-46 -118 -67 -36 -21 -81 -46 -100 -57 -19 -11 -38 -25 -42 -32 -4 -6 -8 -7
-8 -2 0 5 -6 4 -12 -1 -28 -23 -108 -62 -111 -55 -3 6 -1 1219 2 1249 0 6 50
-17 111 -52 60 -35 129 -75 152 -88z m-2561 -204 l609 -348 0 -1527 c0 -841
-3 -1528 -6 -1528 -4 0 -280 156 -615 347 l-608 348 0 1527 c1 841 3 1528 6
1528 3 0 279 -156 614 -347z m-2107 -458 c43 -25 82 -45 87 -45 5 0 9 -3 9 -8
0 -4 13 -13 30 -20 16 -7 45 -24 65 -38 20 -13 41 -22 46 -19 5 4 9 2 9 -4 0
-5 24 -23 53 -38 58 -33 51 -29 382 -218 132 -76 263 -151 290 -167 28 -16 62
-34 78 -41 15 -6 27 -14 27 -18 0 -4 14 -12 30 -19 17 -7 30 -14 30 -17 0 -8
-25 -28 -40 -31 -8 -2 -22 -9 -30 -16 -8 -7 -26 -17 -40 -24 -14 -7 -32 -16
-40 -22 -8 -6 -86 -50 -172 -99 -87 -48 -155 -91 -150 -95 4 -4 2 -6 -3 -4
-14 4 -105 -43 -105 -54 0 -5 -4 -7 -8 -4 -5 3 -24 -5 -43 -17 -19 -13 -55
-34 -81 -47 -26 -13 -44 -29 -41 -35 4 -5 3 -7 -2 -3 -4 4 -26 -3 -49 -16
-146 -82 -232 -131 -236 -136 -3 -3 -18 -12 -35 -20 -16 -8 -56 -30 -87 -48
l-57 -34 -43 24 c-24 14 -61 35 -83 47 -52 30 -144 83 -170 98 -11 6 -36 20
-55 29 -19 10 -37 20 -40 23 -5 7 -23 17 -106 61 -30 17 -71 41 -92 54 -68 42
-247 141 -251 138 -2 -2 -7 0 -10 5 -6 8 -109 73 -116 73 -2 0 -28 14 -57 32
-29 17 -78 45 -108 62 -102 57 -96 52 -77 71 9 9 17 14 17 12 0 -3 123 65 273
152 150 86 293 167 319 181 26 13 45 27 43 30 -2 4 1 7 8 7 7 0 84 41 171 92
88 50 163 91 167 91 4 0 9 3 11 8 2 4 32 22 68 41 36 19 76 42 90 52 14 10 30
18 35 19 6 0 45 -20 89 -45z m1257 -1555 c0 -381 -3 -696 -8 -701 -4 -4 -100
-60 -213 -124 -113 -65 -208 -122 -211 -127 -3 -5 -10 -9 -15 -9 -17 1 -44
-10 -44 -20 0 -5 -7 -9 -15 -9 -8 0 -15 -5 -15 -11 0 -5 -4 -8 -9 -5 -4 3 -23
-6 -41 -19 -19 -14 -38 -25 -42 -25 -5 0 -32 -15 -61 -33 -29 -18 -66 -40 -84
-47 -17 -8 -30 -17 -28 -20 2 -4 -1 -7 -8 -7 -11 0 -276 -150 -287 -162 -3 -3
-12 -7 -20 -9 -8 -2 -22 -9 -30 -16 -8 -7 -33 -22 -56 -33 l-40 -21 0 700 1
699 68 39 c38 22 73 40 78 40 6 0 8 4 5 8 -3 5 0 9 7 9 7 0 67 32 134 72 68
39 127 71 133 71 6 0 8 5 5 10 -3 6 0 10 8 10 8 0 53 23 101 50 48 28 91 50
96 50 6 0 10 3 10 8 0 4 30 23 68 42 37 19 69 37 72 41 3 3 42 25 87 49 45 25
79 48 77 52 -3 5 -2 7 3 6 12 -4 73 23 73 32 0 4 11 11 24 14 14 3 31 12 38
19 16 15 131 77 136 73 1 -2 3 -315 3 -696z m228 -960 c57 -33 106 -60 108
-60 2 0 20 -10 41 -23 20 -13 62 -37 92 -54 47 -26 104 -58 185 -106 11 -6 37
-22 58 -34 20 -13 37 -20 37 -16 0 5 4 3 8 -3 4 -5 34 -25 67 -44 112 -62 130
-72 220 -125 50 -29 117 -67 150 -85 33 -18 80 -46 105 -61 l44 -28 -27 -12
c-15 -7 -27 -17 -27 -22 0 -6 -3 -7 -6 -4 -4 4 -19 -2 -33 -12 -14 -9 -53 -32
-86 -51 -33 -18 -73 -41 -90 -50 -16 -10 -181 -104 -365 -210 -184 -105 -338
-197 -342 -203 -4 -7 -8 -8 -8 -4 0 5 -15 0 -32 -11 -35 -21 -83 -49 -163 -93
l-50 -28 -45 26 c-25 15 -61 35 -80 45 -19 10 -53 30 -75 43 -22 14 -47 28
-55 32 -8 4 -59 33 -112 65 -54 31 -98 54 -98 50 0 -4 -4 -2 -8 4 -7 11 -66
46 -147 88 -22 12 -42 23 -45 26 -12 14 -100 60 -100 53 0 -4 -4 -3 -8 3 -4 7
-24 21 -44 33 -56 31 -98 55 -144 82 -22 13 -89 51 -147 84 -98 55 -130 85
-92 85 8 0 15 5 15 11 0 5 4 8 9 5 5 -3 14 1 21 9 7 8 16 15 20 15 12 0 224
123 232 134 4 6 8 7 8 3 0 -4 17 4 37 18 21 14 43 25 50 25 7 0 13 5 13 10 0
6 4 10 9 10 8 0 106 55 371 208 52 30 115 66 140 80 25 13 77 43 115 66 112
65 149 85 160 86 6 0 57 -27 114 -60z"/>
</g>
</svg>
